# Blender v2.79 (sub 0) OBJ File: ''
# www.blender.org
mtllib UpgraderCrate.mtl
o Texture_640
v 11.930660 3.074218 8.943359
v 8.941406 3.074218 11.932620
v 11.930660 21.009768 8.943362
v 8.941406 21.009768 11.932623
v 11.930660 23.999018 8.943362
v 8.941406 23.999018 11.932623
v 8.941406 0.084962 -11.932620
v 11.930660 0.084962 -8.943359
v 8.941406 3.074220 -11.932620
v 11.930660 3.074220 -8.943359
v 8.941406 21.009771 -11.932617
v 11.931640 21.009771 -8.942380
v 8.941406 23.999022 -11.932617
v 11.930660 23.999022 -8.943357
v 8.941406 23.999022 -11.932617
v 8.941406 23.999022 -8.943357
v -8.993164 23.999022 -11.932617
v -8.993164 23.999022 -8.943357
v -11.982420 23.999022 -8.943357
v 11.930660 3.074218 8.943359
v 10.490230 3.074218 9.014648
v 11.930660 21.009768 8.943362
v 10.490230 21.009768 9.014651
v -11.982420 23.999018 8.943362
v -8.993164 23.999018 8.943362
v -11.982420 23.999022 -8.943357
v -8.993164 23.999022 -8.943357
v 8.941406 23.999018 8.943362
v 8.941406 23.999018 11.932623
v -8.993164 23.999018 11.932623
v -11.982420 23.999018 8.943362
v 8.941406 23.999022 -11.932617
v 11.930660 23.999022 -8.943357
v 8.941406 23.999022 -8.943357
v 11.930660 23.999018 8.943362
v 8.941406 21.009771 -11.932617
v -8.993164 21.009771 -11.932617
v 8.941406 23.999022 -11.932617
v -8.993164 23.999022 -11.932617
v 8.941406 0.084962 -8.943359
v 8.941406 0.084960 8.943359
v -8.993164 0.084962 -8.943359
v -8.993164 0.084960 8.943359
v -11.982420 3.074218 8.943359
v -10.490230 3.074218 9.014648
v -11.982420 21.009768 8.943362
v -10.490230 21.009768 9.014651
v -9.014648 21.009768 10.490232
v -9.014648 3.074218 10.490230
v 8.941406 21.009768 10.490232
v 8.941406 3.074218 10.490230
v -8.993164 23.999018 11.932623
v -11.982420 23.999018 8.943362
v -8.993164 21.009768 11.932623
v -11.982420 21.009768 8.943362
v -8.993164 3.074218 11.932620
v -11.982420 3.074218 8.943359
v -8.993164 3.074220 -11.932620
v -8.993164 21.009771 -11.932617
v -9.014648 3.074220 -10.490230
v -9.014648 21.009771 -10.490227
v -11.982420 0.084960 8.943359
v -8.993164 0.084960 11.932620
v -8.993164 0.084960 8.943359
v 8.941406 0.084960 11.932620
v 8.941406 0.084960 8.943359
v -11.982420 0.084960 8.943359
v -11.982420 0.084962 -8.943359
v -8.993164 0.084962 -8.943359
v 11.930660 0.084960 8.943359
v 8.941406 0.084962 -8.943359
v 11.930660 0.084962 -8.943359
v 8.941406 0.084962 -11.932620
v -11.982420 0.084962 -8.943359
v -8.993164 0.084962 -8.943359
v -8.993164 0.084962 -11.932620
v 8.941406 0.084962 -8.943359
v 8.941406 0.084962 -11.932620
v 11.930660 3.074220 -8.943359
v 10.490230 3.074220 -8.941406
v 11.930660 3.074218 8.943359
v 10.490230 3.074218 9.014648
v 8.941406 3.074218 11.932620
v 8.941406 3.074218 10.490230
v -8.993164 3.074218 11.932620
v -8.993164 3.074218 10.490230
v 8.941406 23.999018 8.943362
v 11.930660 23.999018 8.943362
v 8.941406 23.999018 11.932623
v 8.941406 21.009768 11.932623
v 8.941406 21.009768 10.490232
v 8.941406 3.074218 11.932620
v 8.941406 3.074218 10.490230
v 11.930660 21.009768 8.943362
v 11.931640 21.009771 -8.942380
v 10.490230 21.009768 8.993167
v 10.490230 21.009771 -8.941403
v 8.941406 3.074218 11.932620
v -8.993164 3.074218 11.932620
v 8.941406 0.084960 11.932620
v -8.993164 0.084960 11.932620
v -8.993164 3.074218 11.932620
v -11.982420 3.074218 8.943359
v -8.993164 0.084960 11.932620
v -11.982420 0.084960 8.943359
v -8.993164 3.074218 11.932620
v -9.014648 3.074218 10.490230
v -8.993164 21.009768 11.932623
v -9.014648 21.009768 10.490232
v -10.490230 21.009768 9.014651
v -10.490230 3.074218 9.014648
v -10.490230 21.009771 -8.941403
v -10.490230 3.074220 -8.941406
v 8.941406 21.009768 11.932623
v 8.941406 23.999018 11.932623
v -8.993164 21.009768 11.932623
v -8.993164 23.999018 11.932623
v 8.941406 23.999022 -8.943357
v -8.993164 23.999022 -8.943357
v 8.941406 23.999018 8.943362
v -8.993164 23.999018 8.943362
v 11.930660 3.074220 -8.943359
v 11.930660 3.074218 8.943359
v 10.490230 3.074220 -8.941406
v 10.490230 3.074218 9.014648
v 8.941406 3.074220 -11.932620
v 8.941406 0.084962 -11.932620
v -8.993164 3.074220 -11.932620
v -8.993164 0.084962 -11.932620
v -11.982420 3.074218 8.943359
v -11.982420 21.009768 8.943362
v -10.490230 3.074218 9.014648
v -10.490230 21.009768 9.014651
v -11.982420 21.009771 -8.943357
v -10.490230 21.009771 -8.941403
v -11.982420 3.074220 -8.943359
v -10.490230 3.074220 -8.941406
v -11.982420 3.074220 -8.943359
v -10.490230 3.074220 -8.941406
v -11.982420 3.074218 8.943359
v -10.490230 3.074218 8.993164
v -11.982420 21.009771 -8.943357
v -11.982420 3.074220 -8.943359
v -10.490230 21.009771 -8.941403
v -10.490230 3.074220 -8.941406
v 11.931640 21.009771 -8.942380
v 11.930660 3.074220 -8.943359
v 10.490230 21.009771 -8.941403
v 10.490230 3.074220 -8.941406
v -8.993164 23.999022 -11.932617
v -11.982420 23.999022 -8.943357
v -8.993164 21.009771 -11.932617
v -11.982420 21.009771 -8.943357
v -8.993164 3.074220 -11.932620
v -11.982420 3.074220 -8.943359
v -8.993164 0.084962 -11.932620
v -11.982420 0.084962 -8.943359
v 8.941406 0.084960 8.943359
v 8.941406 0.084960 11.932620
v 11.930660 0.084960 8.943359
v -8.993164 21.009771 -11.932617
v 8.941406 21.009771 -11.932617
v -8.993164 21.009771 -10.490227
v 8.941406 21.009771 -10.490227
v 10.490230 21.009768 9.014651
v 10.490230 3.074218 9.014648
v 10.490230 21.009771 -8.941403
v 10.490230 3.074220 -8.941406
v -11.982420 21.009768 8.943362
v -10.490230 21.009768 8.993167
v -11.982420 21.009771 -8.943357
v -10.490230 21.009771 -8.941403
v 8.941406 3.074218 11.932620
v 8.941406 0.084960 11.932620
v 11.930660 3.074218 8.943359
v 11.930660 0.084960 8.943359
v 11.930660 3.074218 8.943359
v 11.930660 21.009768 8.943362
v 10.490230 3.074218 9.014648
v 10.490230 21.009768 9.014651
v -11.982420 3.074218 8.943359
v -11.982420 3.074220 -8.943359
v -11.982420 0.084960 8.943359
v -11.982420 0.084962 -8.943359
v -8.993164 21.009768 11.932623
v -8.993164 21.009768 10.490232
v 8.941406 21.009768 11.932623
v 8.941406 21.009768 10.490232
v -9.014648 21.009771 -10.490227
v 8.941406 21.009771 -10.490227
v -9.014648 3.074220 -10.490230
v 8.941406 3.074220 -10.490230
v -11.982420 3.074220 -8.943359
v -11.982420 3.074218 8.943359
v -10.490230 3.074220 -8.941406
v -10.490230 3.074218 8.993164
v 8.941406 3.074220 -11.932620
v -8.993164 3.074220 -11.932620
v 8.941406 3.074220 -10.490230
v -8.993164 3.074220 -10.490230
v -11.982420 21.009768 8.943362
v -11.982420 21.009771 -8.943357
v -10.490230 21.009768 8.993167
v -10.490230 21.009771 -8.941403
v 8.941406 21.009771 -11.932617
v 8.941406 3.074220 -11.932620
v 8.941406 21.009771 -10.490227
v 8.941406 3.074220 -10.490230
v 11.930660 0.084960 8.943359
v 11.930660 0.084962 -8.943359
v 11.930660 3.074218 8.943359
v 11.930660 3.074220 -8.943359
v -11.982420 21.009768 8.943362
v -11.982420 23.999018 8.943362
v -11.982420 21.009771 -8.943357
v -11.982420 23.999022 -8.943357
v 11.930660 21.009768 8.943362
v 10.490230 21.009768 8.993167
v 11.931640 21.009771 -8.942380
v 10.490230 21.009771 -8.941403
v -10.490230 21.009768 9.014651
v -10.490230 21.009771 -8.941403
v -10.490230 3.074218 9.014648
v -10.490230 3.074220 -8.941406
v 11.930660 23.999018 8.943362
v 11.930660 21.009768 8.943362
v 11.930660 23.999022 -8.943357
v 11.931640 21.009771 -8.942380
vt 0.839111 0.098633
vt 0.839111 0.585693
vt 0.987305 0.098633
vt 0.987305 0.585693
vt 0.839111 0.666748
vt 0.987305 0.666748
vt 0.987549 0.007324
vt 0.987305 0.098633
vt 0.839111 0.007324
vt 0.839111 0.098633
vt 0.987305 0.585693
vt 0.839111 0.585693
vt 0.987305 0.666748
vt 0.839111 0.666748
vt 1.826416 0.564941
vt 1.826416 0.095703
vt 1.656250 0.564941
vt 1.656250 0.095703
vt 1.655762 0.010254
vt 0.655273 0.098877
vt 0.655273 0.585938
vt 0.621094 0.098877
vt 0.621094 0.585938
vt 1.826416 0.095703
vt 1.656250 0.095703
vt 1.826416 0.564941
vt 1.656250 0.564941
vt 1.656250 0.564941
vt 1.826416 0.564941
vt 1.826416 0.095703
vt 1.655762 0.010254
vt 1.655762 0.010254
vt 1.656250 0.095703
vt 1.826416 0.095703
vt 1.826416 0.564941
vt 1.826416 0.095703
vt 1.826416 0.564941
vt 1.656250 0.095703
vt 1.656250 0.564941
vt 0.006348 0.491455
vt 0.598389 0.491455
vt 0.006348 0.004395
vt 0.598389 0.004395
vt 0.655273 0.098877
vt 0.621094 0.098877
vt 0.655273 0.585938
vt 0.621094 0.585938
vt 0.598389 0.491455
vt 0.598389 0.004395
vt 0.006348 0.491455
vt 0.006348 0.004395
vt 0.839111 0.666748
vt 0.987305 0.666748
vt 0.839111 0.585693
vt 0.987305 0.585693
vt 0.839111 0.098633
vt 0.987305 0.098633
vt 0.655273 0.098877
vt 0.655273 0.585938
vt 0.621094 0.098877
vt 0.621094 0.585938
vt 1.655762 0.010254
vt 1.656250 0.095703
vt 1.826416 0.095703
vt 1.826416 0.564941
vt 1.656250 0.564941
vt 1.826416 0.095703
vt 1.826416 0.564941
vt 1.656250 0.564941
vt 1.656250 0.095703
vt 1.826416 0.564941
vt 1.826416 0.095703
vt 1.655762 0.010254
vt 1.655762 0.010254
vt 1.826416 0.095703
vt 1.656250 0.095703
vt 1.656250 0.564941
vt 1.826416 0.564941
vt 0.655273 0.098877
vt 0.621094 0.098877
vt 0.655273 0.585938
vt 0.621094 0.585938
vt 0.655273 0.098877
vt 0.621094 0.098877
vt 0.655273 0.585938
vt 0.621094 0.585938
vt 1.656250 0.095703
vt 1.655762 0.010254
vt 1.826416 0.095703
vt 0.655273 0.098877
vt 0.621094 0.098877
vt 0.655273 0.585938
vt 0.621094 0.585938
vt 0.655273 0.098877
vt 0.655273 0.585938
vt 0.621094 0.098877
vt 0.621094 0.585938
vt 1.826416 0.095703
vt 1.826416 0.564941
vt 1.656250 0.095703
vt 1.656250 0.564941
vt 0.987305 0.098633
vt 0.839111 0.098633
vt 0.987549 0.007324
vt 0.839111 0.007324
vt 0.655273 0.098877
vt 0.621094 0.098877
vt 0.655273 0.585938
vt 0.621094 0.585938
vt 0.598389 0.491455
vt 0.006348 0.491455
vt 0.598389 0.004395
vt 0.006348 0.004395
vt 1.826416 0.095703
vt 1.656250 0.095703
vt 1.826416 0.564941
vt 1.656250 0.564941
vt 0.006348 0.491455
vt 0.006348 0.004395
vt 0.598389 0.491455
vt 0.598389 0.004395
vt 0.655273 0.098877
vt 0.621094 0.098877
vt 0.655273 0.585938
vt 0.621094 0.585938
vt 1.826416 0.095703
vt 1.656250 0.095703
vt 1.826416 0.564941
vt 1.656250 0.564941
vt 0.655273 0.098877
vt 0.655273 0.585938
vt 0.621094 0.098877
vt 0.621094 0.585938
vt 0.655273 0.098877
vt 0.621094 0.098877
vt 0.655273 0.585938
vt 0.621094 0.585938
vt 0.655273 0.098877
vt 0.655273 0.585938
vt 0.621094 0.098877
vt 0.621094 0.585938
vt 0.655273 0.098877
vt 0.655273 0.585938
vt 0.621094 0.098877
vt 0.621094 0.585938
vt 0.655273 0.098877
vt 0.621094 0.098877
vt 0.655273 0.585938
vt 0.621094 0.585938
vt 0.839111 0.666748
vt 0.839111 0.585693
vt 0.987305 0.666748
vt 0.987305 0.585693
vt 0.839111 0.098633
vt 0.987305 0.098633
vt 0.839111 0.007324
vt 0.987549 0.007324
vt 1.656250 0.095703
vt 1.826416 0.095703
vt 1.655762 0.010254
vt 0.655273 0.098877
vt 0.655273 0.585938
vt 0.621094 0.098877
vt 0.621094 0.585938
vt 0.598389 0.491455
vt 0.598389 0.004395
vt 0.006348 0.491455
vt 0.006348 0.004395
vt 0.655273 0.098877
vt 0.621094 0.098877
vt 0.655273 0.585938
vt 0.621094 0.585938
vt 0.839111 0.098633
vt 0.839111 0.007324
vt 0.987305 0.098633
vt 0.987549 0.007324
vt 0.655273 0.098877
vt 0.621094 0.098877
vt 0.655273 0.585938
vt 0.621094 0.585938
vt 1.826416 0.564941
vt 1.826416 0.095703
vt 1.656250 0.564941
vt 1.656250 0.095703
vt 0.655273 0.098877
vt 0.621094 0.098877
vt 0.655273 0.585938
vt 0.621094 0.585938
vt 0.598389 0.491455
vt 0.006348 0.491455
vt 0.598389 0.004395
vt 0.006348 0.004395
vt 0.655273 0.098877
vt 0.655273 0.585938
vt 0.621094 0.098877
vt 0.621094 0.585938
vt 0.655273 0.098877
vt 0.655273 0.585938
vt 0.621094 0.098877
vt 0.621094 0.585938
vt 0.655273 0.098877
vt 0.655273 0.585938
vt 0.621094 0.098877
vt 0.621094 0.585938
vt 0.655273 0.098877
vt 0.655273 0.585938
vt 0.621094 0.098877
vt 0.621094 0.585938
vt 1.656250 0.564941
vt 1.656250 0.095703
vt 1.826416 0.564941
vt 1.826416 0.095703
vt 1.826416 0.564941
vt 1.656250 0.564941
vt 1.826416 0.095703
vt 1.656250 0.095703
vt 0.655273 0.098877
vt 0.621094 0.098877
vt 0.655273 0.585938
vt 0.621094 0.585938
vt 0.598389 0.491455
vt 0.006348 0.491455
vt 0.598389 0.004395
vt 0.006348 0.004395
vt 1.656250 0.564941
vt 1.826416 0.564941
vt 1.656250 0.095703
vt 1.826416 0.095703
vn 0.7071 -0.0000 0.7071
vn 0.7071 0.0000 -0.7071
vn 0.0000 1.0000 0.0000
vn 0.0494 -0.0000 0.9988
vn 0.0000 0.0000 -1.0000
vn 0.0000 -1.0000 -0.0000
vn -0.0477 -0.0000 0.9989
vn 0.0000 -0.0000 1.0000
vn -0.7071 0.0000 0.7071
vn 0.9999 0.0000 0.0149
vn -1.0000 0.0000 0.0000
vn 0.9999 0.0000 -0.0149
vn 0.0477 0.0000 -0.9989
vn 0.0013 0.0000 -1.0000
vn -0.0013 -0.0000 1.0000
vn 0.0007 -0.0001 1.0000
vn 0.0010 -0.0000 1.0000
vn 0.0013 -0.0000 1.0000
vn 0.0014 -0.0000 1.0000
vn -0.7071 0.0000 -0.7071
vn 1.0000 -0.0000 0.0000
vn -0.0494 0.0000 -0.9988
vn 1.0000 0.0003 0.0001
usemtl mtl_640
s 1
f 1/1/1 3/2/1 2/3/1
f 2/3/1 3/2/1 4/4/1
f 3/2/1 5/5/1 4/4/1
f 4/4/1 5/5/1 6/6/1
f 7/7/2 9/8/2 8/9/2
f 8/9/2 9/8/2 10/10/2
f 9/8/2 11/11/2 10/10/2
f 10/10/2 11/11/2 12/12/2
f 11/11/2 13/13/2 12/12/2
f 12/12/2 13/13/2 14/14/2
f 15/15/3 17/16/3 16/17/3
f 16/17/3 17/16/3 18/18/3
f 17/16/3 19/19/3 18/18/3
f 20/20/4 22/21/4 21/22/4
f 21/22/4 22/21/4 23/23/4
f 24/24/3 25/25/3 26/26/3
f 25/25/3 27/27/3 26/26/3
f 28/28/3 25/25/3 29/29/3
f 29/29/3 25/25/3 30/30/3
f 25/25/3 31/31/3 30/30/3
f 32/32/3 34/33/3 33/34/3
f 33/34/3 34/33/3 35/35/3
f 34/33/3 28/28/3 35/35/3
f 36/36/5 37/37/5 38/38/5
f 37/37/5 39/39/5 38/38/5
f 40/40/6 41/41/6 42/42/6
f 41/41/6 43/43/6 42/42/6
f 44/44/7 45/45/7 46/46/7
f 45/45/7 47/47/7 46/46/7
f 48/48/8 49/49/8 50/50/8
f 49/49/8 51/51/8 50/50/8
f 52/52/9 53/53/9 54/54/9
f 53/53/9 55/55/9 54/54/9
f 54/54/9 55/55/9 56/56/9
f 55/55/9 57/57/9 56/56/9
f 58/58/10 59/59/10 60/60/10
f 59/59/10 61/61/10 60/60/10
f 62/62/6 64/63/6 63/64/6
f 63/64/6 64/63/6 65/65/6
f 64/63/6 66/66/6 65/65/6
f 67/67/6 68/68/6 64/63/6
f 68/68/6 69/69/6 64/63/6
f 66/66/6 71/70/6 70/71/6
f 70/71/6 71/70/6 72/72/6
f 71/70/6 73/73/6 72/72/6
f 74/74/6 76/75/6 75/76/6
f 75/76/6 76/75/6 77/77/6
f 76/75/6 78/78/6 77/77/6
f 79/79/3 80/80/3 81/81/3
f 80/80/3 82/82/3 81/81/3
f 83/83/3 84/84/3 85/85/3
f 84/84/3 86/86/3 85/85/3
f 87/87/3 89/88/3 88/89/3
f 90/90/11 91/91/11 92/92/11
f 91/91/11 93/93/11 92/92/11
f 94/94/3 95/95/3 96/96/3
f 95/95/3 97/97/3 96/96/3
f 98/98/8 99/99/8 100/100/8
f 99/99/8 101/101/8 100/100/8
f 102/102/9 103/103/9 104/104/9
f 103/103/9 105/105/9 104/104/9
f 106/106/12 107/107/12 108/108/12
f 107/107/12 109/109/12 108/108/12
f 110/110/11 112/111/11 111/112/11
f 111/112/11 112/111/11 113/113/11
f 114/114/8 115/115/8 116/116/8
f 115/115/8 117/117/8 116/116/8
f 118/118/3 119/119/3 120/120/3
f 119/119/3 121/121/3 120/120/3
f 122/122/3 124/123/3 123/124/3
f 123/124/3 124/123/3 125/125/3
f 126/126/5 127/127/5 128/128/5
f 127/127/5 129/129/5 128/128/5
f 130/130/13 131/131/13 132/132/13
f 131/131/13 133/133/13 132/132/13
f 134/134/14 135/135/14 136/136/14
f 135/135/14 137/137/14 136/136/14
f 138/138/3 140/139/3 139/140/3
f 139/140/3 140/139/3 141/141/3
f 142/142/15 143/143/15 144/144/15
f 143/143/15 145/145/15 144/144/15
f 146/146/16 148/147/17 147/148/18
f 147/148/18 148/147/17 149/149/19
f 150/150/20 152/151/20 151/152/20
f 151/152/20 152/151/20 153/153/20
f 152/151/20 154/154/20 153/153/20
f 153/153/20 154/154/20 155/155/20
f 154/154/20 156/156/20 155/155/20
f 155/155/20 156/156/20 157/157/20
f 158/158/6 160/159/6 159/160/6
f 161/161/6 162/162/6 163/163/6
f 162/162/6 164/164/6 163/163/6
f 165/165/21 166/166/21 167/167/21
f 166/166/21 168/168/21 167/167/21
f 169/169/3 170/170/3 171/171/3
f 170/170/3 172/172/3 171/171/3
f 173/173/1 174/174/1 175/175/1
f 174/174/1 176/176/1 175/175/1
f 177/177/22 179/178/22 178/179/22
f 178/179/22 179/178/22 180/180/22
f 181/181/11 182/182/11 183/183/11
f 182/182/11 184/184/11 183/183/11
f 185/185/6 186/186/6 187/187/6
f 186/186/6 188/188/6 187/187/6
f 189/189/5 190/190/5 191/191/5
f 190/190/5 192/192/5 191/191/5
f 193/193/3 194/194/3 195/195/3
f 194/194/3 196/196/3 195/195/3
f 197/197/3 198/198/3 199/199/3
f 198/198/3 200/200/3 199/199/3
f 201/201/6 202/202/6 203/203/6
f 202/202/6 204/204/6 203/203/6
f 205/205/11 206/206/11 207/207/11
f 206/206/11 208/208/11 207/207/11
f 209/209/21 210/210/21 211/211/21
f 210/210/21 212/212/21 211/211/21
f 213/213/11 214/214/11 215/215/11
f 214/214/11 216/216/11 215/215/11
f 217/217/6 218/218/6 219/219/6
f 218/218/6 220/220/6 219/219/6
f 221/221/11 222/222/11 223/223/11
f 222/222/11 224/224/11 223/223/11
f 225/225/21 226/226/21 227/227/21
f 226/226/21 228/228/23 227/227/21
