# Created by MKDS Course Modifier
mtllib Jubilife City Street Lamp.mtl
g polygon0
usemtl light
v 1.296875 31.63477 4.087891
v 4.603516 31.63281 0.7832031
v 5.712891 39.13867 0.7773438
v 1.296875 39.14063 5.195313
v -4.603516 31.63281 0.7832031
v -1.296875 31.63477 4.087891
v -1.296875 39.14063 5.195313
v -5.712891 39.13867 0.7773438
vn 0 0 0.9980469
vn 0 0 0.9980469
vn 0 0 0.9980469
vn 0 0 0.9980469
vn 0 0 0.9980469
vn 0 0 0.9980469
vn 0 0 0.9980469
vn 0 0 0.9980469
vt 0.21875 -0.28125
vt 0.28125 -0.28125
vt 0.28125 -0.21875
vt 0.21875 -0.21875
vt 0.21875 -0.28125
vt 0.28125 -0.28125
vt 0.28125 -0.21875
vt 0.21875 -0.21875
f 1/1/1 2/2/2 3/3/3 4/4/4
f 5/5/5 6/6/6 7/7/7 8/8/8
g polygon1
usemtl c1_o02
v -5.509766 28.44141 -0.5136719
v -4.603516 31.63281 0.7832031
v -7.361328 42.00195 -0.5195313
v -5.712891 39.13867 0.7773438
v 0 42.00586 6.839844
v -1.296875 39.14063 5.195313
v 0 28.44531 4.996094
v -1.296875 31.63477 4.087891
v -5.509766 28.44141 -0.5136719
v -4.603516 31.63281 0.7832031
vn -0.7050781 -0.0859375 0.7050781
vn 0 0 0.9980469
vn -0.7050781 -0.0859375 0.7050781
vn 0 0 0.9980469
vn -0.7050781 -0.0859375 0.7050781
vn 0 0 0.9980469
vn -0.7050781 -0.0859375 0.7050781
vn 0 0 0.9980469
vn -0.7050781 -0.0859375 0.7050781
vn 0 0 0.9980469
vt 0 -1.5
vt 0.09375 -1.4375
vt 0 -1
vt 0.09375 -1.0625
vt 0.46875 -1
vt 0.40625 -1.0625
vt 0.46875 -1.5
vt 0.40625 -1.4375
vt 0 -1.5
vt 0.09375 -1.4375
f 9/9/9 10/10/10 11/11/11
f 10/10/10 12/12/12 11/11/11
f 11/11/11 12/12/12 13/13/13
f 12/12/12 14/14/14 13/13/13
f 13/13/13 14/14/14 15/15/15
f 14/14/14 16/16/16 15/15/15
f 15/15/15 16/16/16 17/17/17
f 16/16/16 18/18/18 17/17/17
v 0 28.44531 4.996094
v 1.296875 31.63477 4.087891
v 0 42.00586 6.839844
v 1.296875 39.14063 5.195313
v 7.361328 42.00195 -0.5195313
v 5.712891 39.13867 0.7773438
v 5.509766 28.44141 -0.5136719
v 4.603516 31.63281 0.7832031
v 0 28.44531 4.996094
v 1.296875 31.63477 4.087891
vn 0.7050781 -0.0859375 0.7050781
vn 0 0 0.9980469
vn 0.7050781 -0.0859375 0.7050781
vn 0 0 0.9980469
vn 0.7050781 -0.0859375 0.7050781
vn 0 0 0.9980469
vn 0.7050781 -0.0859375 0.7050781
vn 0 0 0.9980469
vn 0.7050781 -0.0859375 0.7050781
vn 0 0 0.9980469
vt 0 -1.5
vt 0.09375 -1.4375
vt 0 -1
vt 0.09375 -1.0625
vt 0.46875 -1
vt 0.40625 -1.0625
vt 0.46875 -1.5
vt 0.40625 -1.4375
vt 0 -1.5
vt 0.09375 -1.4375
f 19/19/19 20/20/20 21/21/21
f 20/20/20 22/22/22 21/21/21
f 21/21/21 22/22/22 23/23/23
f 22/22/22 24/24/24 23/23/23
f 23/23/23 24/24/24 25/25/25
f 24/24/24 26/26/26 25/25/25
f 25/25/25 26/26/26 27/27/27
f 26/26/26 28/28/28 27/27/27
v -2 50.52539 0.9902344
v 2 50.52539 0.9902344
v 2 59 1
v -2 59 1
v -3.925781 2.599609 4.0625
v 3.925781 2.599609 4.0625
v 3.925781 2.599609 -3.789063
v -3.925781 2.599609 -3.789063
v 0 28.4375 -6.023438
v -5.509766 28.44141 -0.5136719
v 0 28.44531 4.996094
v 5.509766 28.44141 -0.5136719
v -1 3.400391 0
v 1 3.400391 0
v 1 28.51172 0
v -1 28.51172 0
vn 0 0 0.9980469
vn 0 0 0.9980469
vn 0 0 0.9980469
vn 0 0 0.9980469
vn 0 0.9980469 0
vn 0 0.9980469 0
vn 0 0.9980469 0
vn 0 0.9980469 0
vn 0 0.9980469 0
vn 0 0.9980469 0
vn 0 0.9980469 0
vn 0 0.9980469 0
vn 0 0 0.9980469
vn 0 0 0.9980469
vn 0 0 0.9980469
vn 0 0 0.9980469
vt 0.53125 -0.46875
vt 0.71875 -0.46875
vt 0.71875 -0.03125
vt 0.53125 -0.03125
vt 0.53125 -0.96875
vt 0.96875 -0.96875
vt 0.96875 -0.53125
vt 0.53125 -0.53125
vt 0.09375 -0.4375
vt 0.03125 -0.4375
vt 0.03125 -0.46875
vt 0.09375 -0.46875
vt 0.78125 -0.46875
vt 0.96875 -0.46875
vt 0.96875 -0.03125
vt 0.78125 -0.03125
f 29/29/29 30/30/30 31/31/31 32/32/32
f 33/33/33 34/34/34 35/35/35 36/36/36
f 37/37/37 38/38/38 39/39/39 40/40/40
f 41/41/41 42/42/42 43/43/43 44/44/44
v -8.591797 42.23438 -0.5195313
v 0 51.05469 -0.5273438
v 0 42.22852 -9.111328
v 0 51.05469 -0.5273438
v 0 42.24023 8.070313
v 8.591797 42.23438 -0.5195313
v -8.591797 42.23438 -0.5195313
v 0 42.24023 8.070313
v 0 51.05469 -0.5273438
v 0 42.22852 -9.111328
v 0 51.05469 -0.5273438
v 8.591797 42.23438 -0.5195313
vn -0.5820313 0.5664063 -0.5820313
vn -0.5820313 0.5664063 -0.5820313
vn -0.5820313 0.5664063 -0.5820313
vn 0.5820313 0.5683594 0.5820313
vn 0.5820313 0.5683594 0.5820313
vn 0.5820313 0.5683594 0.5820313
vn -0.5820313 0.5683594 0.5820313
vn -0.5820313 0.5683594 0.5820313
vn -0.5820313 0.5683594 0.5820313
vn 0.5820313 0.5664063 -0.5820313
vn 0.5820313 0.5664063 -0.5820313
vn 0.5820313 0.5664063 -0.5820313
vt 0.46875 -0.96875
vt 0.25 -0.5
vt 0.03125 -0.96875
vt 0.25 -0.5
vt 0.46875 -0.96875
vt 0.03125 -0.96875
vt 0.03125 -0.96875
vt 0.46875 -0.96875
vt 0.25 -0.5
vt 0.03125 -0.96875
vt 0.25 -0.5
vt 0.46875 -0.96875
f 45/45/45 46/46/46 47/47/47
f 48/48/48 49/49/49 50/50/50
f 51/51/51 52/52/52 53/53/53
f 54/54/54 55/55/55 56/56/56
